<svg width="32" height="32" viewBox="0 0 24 24" fill="none" xmlns="http://www.w3.org/2000/svg">
  <defs>
    <linearGradient id="gradient" x1="0%" y1="0%" x2="100%" y2="100%">
      <stop offset="0%" style="stop-color:#00d2ff;stop-opacity:1" />
      <stop offset="100%" style="stop-color:#ff6b6b;stop-opacity:1" />
    </linearGradient>
  </defs>
  <path d="M12 2C9.38 2 7.25 4.13 7.25 6.75C7.25 9.32 8.66 11.4 10.74 12.46C11.15 12.67 11.6 12.8 12.06 12.8C12.46 12.8 12.85 12.69 13.21 12.5C15.32 11.46 16.75 9.35 16.75 6.75C16.75 4.13 14.62 2 12 2ZM12 22C16.97 22 21 17.97 21 13C21 10.84 20.16 8.86 18.71 7.4C17.26 5.95 15.28 5.11 13.12 5.11C12.75 5.11 12.38 5.13 12.01 5.18C11.64 5.13 11.27 5.11 10.9 5.11C8.74 5.11 6.76 5.95 5.31 7.4C3.86 8.86 3.02 10.84 3.02 13C3.02 17.97 7.05 22 12.02 22Z" fill="url(#gradient)"/>
</svg>
